<svg width="34" height="26" viewBox="0 0 34 26" fill="none" xmlns="http://www.w3.org/2000/svg">
<path d="M12.3596 18.5768C11.7188 19.193 11.7188 20.1916 12.3596 20.8076C13.0005 21.4238 14.039 21.4238 14.6799 20.8076L25.1174 10.7715C26.3984 9.53974 28.4756 9.53974 29.7565 10.7715C31.0375 12.0032 31.0375 14.0005 29.7565 15.2323L19.5202 25.0743C20.7997 26.3061 22.8757 26.3073 24.1566 25.077L24.1592 25.0743L32.0781 17.4606C34.6406 14.9965 34.6406 11.0025 32.0781 8.5392C29.5154 6.07508 25.3612 6.07508 22.7999 8.5392L12.3596 18.5768ZM28.5977 11.885C27.9568 11.2689 26.9183 11.2689 26.278 11.885L15.8392 21.9212C14.5596 23.1531 12.4838 23.1543 11.2029 21.9243L11.1995 21.9212C10.5594 21.3056 9.52148 21.3051 8.88065 21.9207L8.87998 21.9212C8.23908 22.5369 8.23849 23.5353 8.87858 24.1515L8.87998 24.1528C11.4419 26.6157 15.5962 26.6157 18.1579 24.1528L28.5969 14.1153C29.2377 13.4993 29.2377 12.5006 28.5977 11.885ZM11.2002 17.4612L21.6377 7.42487C22.2779 6.80875 22.2779 5.81006 21.6377 5.19394C20.9976 4.57832 19.9596 4.57832 19.3196 5.19394L8.88006 15.2302C7.59973 16.4619 5.52255 16.4626 4.24156 15.2308L4.2409 15.2302C2.95998 13.9991 2.95858 12.0031 4.2389 10.7708L4.2409 10.7689L14.4786 0.924817C13.1984 -0.306922 11.1218 -0.307561 9.84019 0.923467L9.83886 0.924817L1.92143 8.53913C-0.640476 11.0031 -0.640476 14.997 1.92143 17.4605C4.48466 19.9248 8.63696 19.9248 11.2002 17.4612ZM5.40104 14.1153C6.04113 14.7309 7.07902 14.7309 7.71925 14.1153L18.1587 4.07847C19.4389 2.84673 21.5155 2.84609 22.7964 4.07705L22.7978 4.07847C23.4387 4.69459 24.4771 4.69459 25.1173 4.07847C25.7581 3.46228 25.7581 2.46366 25.1173 1.84804C22.5548 -0.616012 18.4018 -0.616012 15.8392 1.84804L5.40104 11.885C4.76014 12.5007 4.76014 13.4993 5.40023 14.1154H5.40104V14.1153Z" fill="#2B2828"/>
</svg>
