<svg width="48" height="38" viewBox="0 0 48 38" fill="none" xmlns="http://www.w3.org/2000/svg">
<path d="M17.4488 27.1507C16.5442 28.0512 16.5442 29.5108 17.4488 30.4111C18.3536 31.3117 19.8198 31.3117 20.7245 30.4111L35.4598 15.7429C37.2684 13.9427 40.2009 13.9427 42.0091 15.7429C43.8176 17.5432 43.8176 20.4622 42.0091 22.2626L27.5579 36.647C29.3643 38.4473 32.2951 38.4492 34.1034 36.651L34.1072 36.647L45.2867 25.5193C48.9044 21.918 48.9044 16.0806 45.2867 12.4804C41.6688 8.87897 35.8041 8.87897 32.1881 12.4804L17.4488 27.1507ZM40.3732 17.3704C39.4685 16.4699 38.0023 16.4699 37.0984 17.3704L22.3612 32.0387C20.5548 33.8391 17.6242 33.8409 15.8158 32.0432L15.811 32.0387C14.9073 31.139 13.4421 31.1382 12.5374 32.0379L12.5364 32.0387C11.6316 32.9385 11.6308 34.3978 12.5345 35.2984L12.5364 35.3003C16.1533 38.8999 22.0181 38.8999 25.6347 35.3003L40.3721 20.6301C41.2768 19.7297 41.2768 18.2701 40.3732 17.3704ZM15.812 25.5203L30.5473 10.8517C31.4512 9.95125 31.4512 8.49162 30.5473 7.59114C29.6437 6.69139 28.1782 6.69139 27.2747 7.59114L12.5366 22.2596C10.729 24.0597 7.79654 24.0607 5.98809 22.2604L5.98715 22.2596C4.1788 20.4603 4.17682 17.543 5.98433 15.7419L5.98715 15.7391L20.4404 1.35166C18.6331 -0.448578 15.7014 -0.449513 13.892 1.34968L13.8902 1.35166L2.7126 12.4803C-0.904201 16.0815 -0.904201 21.9187 2.7126 25.5192C6.33129 29.1208 12.1934 29.1208 15.812 25.5203ZM7.62499 20.6301C8.52865 21.5298 9.9939 21.5298 10.8978 20.6301L25.6358 5.96084C27.4432 4.16061 30.3748 4.15967 32.1832 5.95877L32.1851 5.96084C33.0899 6.86132 34.556 6.86132 35.4597 5.96084C36.3644 5.06026 36.3644 3.60073 35.4597 2.70097C31.8421 -0.900325 25.979 -0.900325 22.3612 2.70097L7.62499 17.3704C6.72019 18.2702 6.72019 19.7298 7.62385 20.6302H7.62499V20.6301Z" fill="white"/>
</svg>
