<svg width="20" height="11" viewBox="0 0 20 11" fill="none" xmlns="http://www.w3.org/2000/svg">
<path d="M13.7901 1.15301C13.6714 1.2747 13.6058 1.43839 13.6074 1.60834C13.6091 1.77829 13.6779 1.94067 13.7989 2.06004L16.7867 4.98391L1.63741 5.13135C1.4668 5.13301 1.30384 5.20238 1.18437 5.32419C1.06491 5.446 0.998724 5.61029 1.00038 5.7809C1.00205 5.9515 1.07141 6.11447 1.19323 6.23393C1.31504 6.3534 1.47932 6.41958 1.64993 6.41792L16.78 6.27066L13.8688 9.23908C13.748 9.3614 13.6807 9.5267 13.6818 9.69862C13.6828 9.87054 13.7522 10.035 13.8745 10.1558C13.9968 10.2766 14.1621 10.3439 14.334 10.3428C14.5059 10.3417 14.6704 10.2724 14.7912 10.1501L18.8426 6.01255C18.9496 5.903 19.0088 5.75553 19.0073 5.60243C19.0058 5.44932 18.9437 5.30303 18.8346 5.19558L14.7035 1.14412C14.6431 1.0844 14.5715 1.03724 14.4928 1.00534C14.4141 0.973448 14.3299 0.957451 14.245 0.958277C14.16 0.959104 14.0761 0.976737 13.998 1.01016C13.92 1.04358 13.8493 1.09213 13.7901 1.15301Z" fill="white"/>
</svg>
