<svg width="19" height="10" viewBox="0 0 19 10" fill="none" xmlns="http://www.w3.org/2000/svg">
<path d="M5.17367 9.19466C5.29349 9.07412 5.36074 8.91107 5.36074 8.74112C5.36074 8.57117 5.29349 8.40812 5.17367 8.28758L2.21442 5.33477H17.3645C17.5351 5.33477 17.6987 5.26699 17.8194 5.14635C17.94 5.0257 18.0078 4.86207 18.0078 4.69146C18.0078 4.52084 17.94 4.35721 17.8194 4.23656C17.6987 4.11592 17.5351 4.04814 17.3645 4.04814H2.23372L5.17367 1.10819C5.29566 0.987056 5.36453 0.822418 5.36514 0.650499C5.36574 0.478581 5.29802 0.313464 5.17689 0.191472C5.05575 0.0694804 4.89111 0.000607223 4.71919 3.99593e-06C4.54727 -0.000599231 4.38215 0.0671169 4.26016 0.188255L0.168684 4.28617C0.060652 4.39467 0 4.54156 0 4.69467C0 4.84779 0.060652 4.99467 0.168684 5.10318L4.26016 9.19466C4.31997 9.25495 4.39112 9.30281 4.46951 9.33547C4.54791 9.36813 4.63199 9.38495 4.71692 9.38495C4.80184 9.38495 4.88593 9.36813 4.96432 9.33547C5.04271 9.30281 5.11387 9.25495 5.17367 9.19466Z" fill="white"/>
</svg>
