<svg width="17" height="17" viewBox="0 0 17 17" fill="none" xmlns="http://www.w3.org/2000/svg">
<path d="M12.0212 11.5637C11.9171 11.456 11.7745 11.3941 11.6248 11.3915C11.475 11.389 11.3304 11.446 11.2227 11.5501L8.57931 14.1046L8.81067 0.806482C8.81278 0.657319 8.75578 0.513382 8.65211 0.406109C8.54844 0.298836 8.40654 0.236944 8.25739 0.23395C8.18286 0.23237 8.10876 0.245562 8.03936 0.272765C7.96996 0.299968 7.90663 0.340643 7.85302 0.392445C7.79942 0.444246 7.7566 0.506148 7.72704 0.57458C7.69749 0.643012 7.68177 0.71662 7.6808 0.791157L7.45377 14.0694L4.91887 11.4463C4.8148 11.3386 4.67221 11.2767 4.52247 11.2741C4.37274 11.2715 4.22811 11.3286 4.12042 11.4326C4.01273 11.5367 3.95079 11.6793 3.94823 11.829C3.94567 11.9788 4.0027 12.1234 4.10677 12.2311L7.63836 15.8855C7.73203 15.9825 7.86036 16.0382 7.99512 16.0405C8.12989 16.0428 8.26005 15.9915 8.35697 15.8978L12.0114 12.3662C12.0651 12.3144 12.108 12.2524 12.1375 12.1839C12.1671 12.1153 12.1828 12.0416 12.1837 11.967C12.1846 11.8924 12.1707 11.8183 12.1428 11.7491C12.1149 11.6799 12.0736 11.6169 12.0212 11.5637Z" fill="white"/>
</svg>
