<svg width="441" height="258" viewBox="0 0 441 258" fill="none" xmlns="http://www.w3.org/2000/svg">
<path d="M24.0272 29.1733C23.8572 29.1733 23.7722 29.0997 23.7722 28.9523C23.7722 28.9297 23.7835 28.873 23.8062 28.7823L28.3792 17.9703C28.4472 17.823 28.5038 17.7267 28.5492 17.6813C28.6058 17.636 28.6965 17.6133 28.8212 17.6133H29.4502C29.5748 17.6133 29.6598 17.636 29.7052 17.6813C29.7618 17.7267 29.8242 17.823 29.8922 17.9703L34.4652 28.7823C34.4878 28.873 34.4992 28.9297 34.4992 28.9523C34.4992 29.0997 34.4142 29.1733 34.2442 29.1733H33.3432C33.2072 29.1733 33.1108 29.1563 33.0542 29.1223C33.0088 29.0883 32.9635 29.0203 32.9182 28.9183L31.7622 26.1473H26.5092L25.3532 28.9183C25.3078 29.0203 25.2568 29.0883 25.2002 29.1223C25.1548 29.1563 25.0642 29.1733 24.9282 29.1733H24.0272ZM31.3032 24.9403L29.1272 19.7043L26.9512 24.9403H31.3032ZM36.9567 29.1733C36.6167 29.1733 36.4467 29.0033 36.4467 28.6633V18.1233C36.4467 17.7833 36.6167 17.6133 36.9567 17.6133H37.4837C37.6651 17.6133 37.7954 17.6587 37.8747 17.7493C37.9541 17.8287 37.9937 17.9533 37.9937 18.1233V28.6633C37.9937 28.8333 37.9541 28.9637 37.8747 29.0543C37.7954 29.1337 37.6651 29.1733 37.4837 29.1733H36.9567ZM40.9621 19.3133C40.7468 19.3133 40.5768 19.251 40.4521 19.1263C40.3274 18.9903 40.2651 18.826 40.2651 18.6333V18.2933C40.2651 18.1007 40.3274 17.942 40.4521 17.8173C40.5768 17.6813 40.7468 17.6133 40.9621 17.6133H41.4381C41.6534 17.6133 41.8234 17.6813 41.9481 17.8173C42.0728 17.942 42.1351 18.1007 42.1351 18.2933V18.6333C42.1351 18.826 42.0728 18.9903 41.9481 19.1263C41.8234 19.251 41.6534 19.3133 41.4381 19.3133H40.9621ZM40.9451 29.1733C40.7638 29.1733 40.6334 29.1337 40.5541 29.0543C40.4748 28.9637 40.4351 28.8333 40.4351 28.6633V21.5233C40.4351 21.3533 40.4748 21.2287 40.5541 21.1493C40.6334 21.0587 40.7638 21.0133 40.9451 21.0133H41.4551C41.8064 21.0133 41.9821 21.1833 41.9821 21.5233V28.6633C41.9821 29.0033 41.8064 29.1733 41.4551 29.1733H40.9451ZM48.7845 29.4283C47.3112 29.4283 46.1552 29.06 45.3165 28.3233C44.4892 27.5753 44.0755 26.51 44.0755 25.1273C44.0755 24.266 44.2625 23.5067 44.6365 22.8493C45.0218 22.192 45.5658 21.682 46.2685 21.3193C46.9712 20.9453 47.7872 20.7583 48.7165 20.7583C49.4078 20.7583 49.9915 20.8207 50.4675 20.9453C50.9548 21.07 51.4138 21.2853 51.8445 21.5913C51.9352 21.6593 51.9805 21.7273 51.9805 21.7953C51.9805 21.818 51.9578 21.8747 51.9125 21.9653L51.5725 22.5433C51.5272 22.6453 51.4762 22.6963 51.4195 22.6963C51.3855 22.6963 51.3288 22.668 51.2495 22.6113C50.9095 22.3733 50.5412 22.1977 50.1445 22.0843C49.7478 21.971 49.2832 21.9143 48.7505 21.9143C47.7532 21.9143 46.9768 22.2033 46.4215 22.7813C45.8662 23.348 45.5885 24.13 45.5885 25.1273C45.5885 26.1927 45.8662 26.9803 46.4215 27.4903C46.9768 28.0003 47.8042 28.2553 48.9035 28.2553C49.4475 28.2553 49.9122 28.1987 50.2975 28.0853C50.6828 27.9607 51.0398 27.785 51.3685 27.5583C51.4478 27.5017 51.5045 27.4733 51.5385 27.4733C51.5952 27.4733 51.6462 27.5243 51.6915 27.6263L52.0485 28.2213C52.0938 28.312 52.1165 28.363 52.1165 28.3743C52.1165 28.4423 52.0655 28.5103 51.9635 28.5783C51.5328 28.8617 51.0625 29.0713 50.5525 29.2073C50.0425 29.3547 49.4532 29.4283 48.7845 29.4283ZM58.379 29.4283C57.529 29.4283 56.7527 29.281 56.05 28.9863C55.3473 28.6917 54.7807 28.2327 54.35 27.6093C53.9307 26.9747 53.721 26.187 53.721 25.2463C53.721 23.773 54.1007 22.6567 54.86 21.8973C55.6307 21.138 56.7187 20.7583 58.124 20.7583C59.518 20.7583 60.5663 21.1267 61.269 21.8633C61.9717 22.5887 62.323 23.671 62.323 25.1103C62.323 25.4163 62.1757 25.5693 61.881 25.5693H55.2C55.2 26.4647 55.4947 27.1447 56.084 27.6093C56.6733 28.074 57.4893 28.3063 58.532 28.3063C59.518 28.3063 60.368 28.0853 61.082 27.6433C61.15 27.6093 61.201 27.5923 61.235 27.5923C61.303 27.5923 61.354 27.632 61.388 27.7113L61.711 28.2723C61.7337 28.3063 61.745 28.3517 61.745 28.4083C61.745 28.4877 61.6997 28.5557 61.609 28.6123C61.1557 28.8957 60.6683 29.0997 60.147 29.2243C59.637 29.3603 59.0477 29.4283 58.379 29.4283ZM60.895 24.5323C60.895 23.6823 60.6627 23.025 60.198 22.5603C59.7333 22.0843 59.042 21.8463 58.124 21.8463C57.1833 21.8463 56.458 22.09 55.948 22.5773C55.4493 23.0647 55.2 23.7163 55.2 24.5323H60.895ZM71.903 29.1733C71.563 29.1733 71.393 29.0033 71.393 28.6633V18.1233C71.393 17.7833 71.563 17.6133 71.903 17.6133H75.133C77.0257 17.6133 78.4764 18.0723 79.485 18.9903C80.505 19.897 81.015 21.3647 81.015 23.3933C81.015 25.422 80.505 26.8953 79.485 27.8133C78.4764 28.72 77.0257 29.1733 75.133 29.1733H71.903ZM75.252 27.9323C76.646 27.9323 77.7 27.5867 78.414 26.8953C79.1394 26.204 79.502 25.0367 79.502 23.3933C79.502 21.75 79.1394 20.5827 78.414 19.8913C77.7 19.2 76.646 18.8543 75.252 18.8543H72.94V27.9323H75.252ZM85.7991 29.4283C84.6657 29.4283 83.7647 29.0997 83.0961 28.4423C82.4274 27.7737 82.0931 26.8273 82.0931 25.6033C82.0931 24.64 82.2914 23.7957 82.6881 23.0703C83.0961 22.3337 83.6797 21.767 84.4391 21.3703C85.1984 20.9623 86.0881 20.7583 87.1081 20.7583C87.8221 20.7583 88.4794 20.8547 89.0801 21.0473C89.6807 21.2287 90.1851 21.461 90.5931 21.7443V28.7483C90.5931 28.8957 90.5591 29.0033 90.4911 29.0713C90.4231 29.1393 90.3097 29.1733 90.1511 29.1733H89.6241C89.4994 29.1733 89.4087 29.145 89.3521 29.0883C89.2954 29.0317 89.2557 28.941 89.2331 28.8163L89.1481 28.0683C88.7854 28.5443 88.3321 28.89 87.7881 29.1053C87.2441 29.3207 86.5811 29.4283 85.7991 29.4283ZM86.3771 28.2553C86.8304 28.2553 87.2667 28.1647 87.6861 27.9833C88.1054 27.802 88.4454 27.5413 88.7061 27.2013C88.9667 26.85 89.0971 26.4477 89.0971 25.9943V22.3393C88.5304 22.056 87.8561 21.9143 87.0741 21.9143C86.0314 21.9143 85.1927 22.2373 84.5581 22.8833C83.9234 23.518 83.6061 24.3963 83.6061 25.5183C83.6061 26.459 83.8327 27.1503 84.2861 27.5923C84.7507 28.0343 85.4477 28.2553 86.3771 28.2553ZM93.4025 29.1733C93.0511 29.1733 92.8755 29.0033 92.8755 28.6633V21.4383C92.8755 21.2797 92.8981 21.172 92.9435 21.1153C93.0001 21.0473 93.1078 21.0133 93.2665 21.0133H93.8275C94.0768 21.0133 94.2015 21.1323 94.2015 21.3703V22.1523C95.0061 21.223 96.1735 20.7583 97.7035 20.7583C98.6328 20.7583 99.3695 21.002 99.9135 21.4893C100.469 21.9653 100.746 22.6907 100.746 23.6653V28.6633C100.746 28.8333 100.707 28.9637 100.627 29.0543C100.548 29.1337 100.418 29.1733 100.236 29.1733H99.7265C99.3751 29.1733 99.1995 29.0033 99.1995 28.6633V23.7503C99.1995 23.0817 99.0408 22.6113 98.7235 22.3393C98.4175 22.0673 97.9188 21.9313 97.2275 21.9313C96.7628 21.9313 96.3095 22.022 95.8675 22.2033C95.4368 22.3733 95.0855 22.617 94.8135 22.9343C94.5528 23.2517 94.4225 23.6143 94.4225 24.0223V28.6633C94.4225 28.8333 94.3828 28.9637 94.3035 29.0543C94.2241 29.1337 94.0938 29.1733 93.9125 29.1733H93.4025ZM107.254 29.4283C106.404 29.4283 105.628 29.281 104.925 28.9863C104.222 28.6917 103.656 28.2327 103.225 27.6093C102.806 26.9747 102.596 26.187 102.596 25.2463C102.596 23.773 102.976 22.6567 103.735 21.8973C104.506 21.138 105.594 20.7583 106.999 20.7583C108.393 20.7583 109.441 21.1267 110.144 21.8633C110.847 22.5887 111.198 23.671 111.198 25.1103C111.198 25.4163 111.051 25.5693 110.756 25.5693H104.075C104.075 26.4647 104.37 27.1447 104.959 27.6093C105.548 28.074 106.364 28.3063 107.407 28.3063C108.393 28.3063 109.243 28.0853 109.957 27.6433C110.025 27.6093 110.076 27.5923 110.11 27.5923C110.178 27.5923 110.229 27.632 110.263 27.7113L110.586 28.2723C110.609 28.3063 110.62 28.3517 110.62 28.4083C110.62 28.4877 110.575 28.5557 110.484 28.6123C110.031 28.8957 109.543 29.0997 109.022 29.2243C108.512 29.3603 107.923 29.4283 107.254 29.4283ZM109.77 24.5323C109.77 23.6823 109.538 23.025 109.073 22.5603C108.608 22.0843 107.917 21.8463 106.999 21.8463C106.058 21.8463 105.333 22.09 104.823 22.5773C104.324 23.0647 104.075 23.7163 104.075 24.5323H109.77Z" fill="black"/>
<rect width="441" height="258" fill="white"/>
<path d="M37.1311 55.097L33.9312 52.0601C33.7965 51.9322 33.7965 51.7084 33.9312 51.5486L34.4364 51.0691C34.5712 50.9412 34.807 50.9412 34.9754 51.0691L37.4006 53.3708L42.79 48.2559C42.9247 48.1281 43.1605 48.1281 43.3289 48.2559L43.8342 48.7355C43.9689 48.8633 43.9689 49.0871 43.8342 49.2469L37.6701 55.097C37.5017 55.2249 37.2659 55.2249 37.1311 55.097Z" fill="#222A30" fill-opacity="0.45"/>
<path d="M37.1311 75.737L33.9312 72.7001C33.7965 72.5722 33.7965 72.3485 33.9312 72.1886L34.4364 71.7091C34.5712 71.5812 34.807 71.5812 34.9754 71.7091L37.4006 74.0108L42.79 68.896C42.9247 68.7681 43.1605 68.7681 43.3289 68.896L43.8342 69.3755C43.9689 69.5033 43.9689 69.7271 43.8342 69.8869L37.6701 75.737C37.5017 75.8649 37.2659 75.8649 37.1311 75.737Z" fill="#222A30" fill-opacity="0.45"/>
<path d="M56.1944 51.6897C56.1153 52.3665 55.8648 52.8894 55.4429 53.2585C55.024 53.6248 54.4659 53.8079 53.7686 53.8079C53.0128 53.8079 52.4063 53.5369 51.9493 52.9949C51.4952 52.4529 51.2681 51.7278 51.2681 50.8196V50.2043C51.2681 49.6096 51.3736 49.0867 51.5845 48.6355C51.7984 48.1843 52.1002 47.8386 52.4898 47.5984C52.8795 47.3552 53.3306 47.2336 53.8433 47.2336C54.523 47.2336 55.0679 47.4241 55.4781 47.8049C55.8882 48.1829 56.127 48.7073 56.1944 49.3782H55.3463C55.273 48.8684 55.1133 48.4993 54.8672 48.2708C54.6241 48.0422 54.2828 47.928 53.8433 47.928C53.3043 47.928 52.8809 48.1272 52.5733 48.5256C52.2686 48.9241 52.1163 49.491 52.1163 50.2263V50.8459C52.1163 51.5403 52.2613 52.0925 52.5513 52.5027C52.8414 52.9128 53.2471 53.1179 53.7686 53.1179C54.2374 53.1179 54.5963 53.0125 54.8453 52.8015C55.0972 52.5876 55.2642 52.217 55.3463 51.6897H56.1944ZM59.5211 49.6946C59.398 49.6741 59.2647 49.6638 59.1212 49.6638C58.588 49.6638 58.2261 49.8909 58.0357 50.345V53.72H57.2227V48.9651H58.0137L58.0269 49.5144C58.2935 49.0896 58.6714 48.8772 59.1607 48.8772C59.3189 48.8772 59.439 48.8977 59.5211 48.9387V49.6946ZM62.1578 53.8079C61.5132 53.8079 60.9888 53.5969 60.5845 53.175C60.1802 52.7502 59.9781 52.1833 59.9781 51.4744V51.325C59.9781 50.8533 60.0674 50.4329 60.2462 50.0637C60.4278 49.6917 60.6797 49.4016 61.002 49.1936C61.3272 48.9827 61.6788 48.8772 62.0567 48.8772C62.6749 48.8772 63.1553 49.0808 63.4981 49.488C63.8409 49.8953 64.0123 50.4783 64.0123 51.2371V51.5754H60.7911C60.8028 52.0442 60.939 52.4236 61.1998 52.7136C61.4634 53.0007 61.7974 53.1443 62.2017 53.1443C62.4888 53.1443 62.732 53.0857 62.9312 52.9685C63.1304 52.8513 63.3047 52.696 63.4542 52.5027L63.9507 52.8894C63.5523 53.5017 62.9547 53.8079 62.1578 53.8079ZM62.0567 49.5452C61.7286 49.5452 61.4532 49.6653 61.2305 49.9055C61.0079 50.1428 60.8702 50.4768 60.8174 50.9075H63.1993V50.8459C63.1758 50.4329 63.0645 50.1135 62.8653 49.8879C62.6661 49.6594 62.3965 49.5452 62.0567 49.5452ZM67.8926 53.72C67.8458 53.6262 67.8077 53.4592 67.7784 53.219C67.4005 53.6116 66.9493 53.8079 66.4249 53.8079C65.9561 53.8079 65.5709 53.676 65.2691 53.4124C64.9703 53.1458 64.8209 52.8088 64.8209 52.4016C64.8209 51.9065 65.0084 51.5227 65.3834 51.2502C65.7613 50.9749 66.2916 50.8372 66.9742 50.8372H67.7652V50.4636C67.7652 50.1794 67.6802 49.9539 67.5103 49.7869C67.3404 49.6169 67.0899 49.532 66.7589 49.532C66.4688 49.532 66.2256 49.6052 66.0294 49.7517C65.8331 49.8982 65.7349 50.0754 65.7349 50.2834H64.9175C64.9175 50.0461 65.001 49.8176 65.168 49.5979C65.338 49.3752 65.5665 49.1995 65.8536 49.0706C66.1436 48.9417 66.4615 48.8772 66.8072 48.8772C67.355 48.8772 67.7842 49.0149 68.0948 49.2903C68.4053 49.5627 68.5665 49.9392 68.5782 50.4197V52.6082C68.5782 53.0447 68.6339 53.3918 68.7452 53.6497V53.72H67.8926ZM66.5435 53.1003C66.7984 53.1003 67.0401 53.0344 67.2686 52.9026C67.4971 52.7708 67.6627 52.5994 67.7652 52.3884V51.4128H67.128C66.1319 51.4128 65.6339 51.7043 65.6339 52.2874C65.6339 52.5422 65.7188 52.7415 65.8887 52.885C66.0587 53.0286 66.2769 53.1003 66.5435 53.1003ZM70.9556 47.8137V48.9651H71.8433V49.5935H70.9556V52.5422C70.9556 52.7327 70.9952 52.8762 71.0743 52.9729C71.1534 53.0667 71.2881 53.1135 71.4786 53.1135C71.5723 53.1135 71.7012 53.0959 71.8653 53.0608V53.72C71.6514 53.7786 71.4434 53.8079 71.2413 53.8079C70.878 53.8079 70.6041 53.698 70.4195 53.4783C70.2349 53.2585 70.1426 52.9465 70.1426 52.5422V49.5935H69.2769V48.9651H70.1426V47.8137H70.9556ZM74.7701 53.8079C74.1255 53.8079 73.6011 53.5969 73.1968 53.175C72.7925 52.7502 72.5904 52.1833 72.5904 51.4744V51.325C72.5904 50.8533 72.6797 50.4329 72.8585 50.0637C73.0401 49.6917 73.2921 49.4016 73.6143 49.1936C73.9395 48.9827 74.2911 48.8772 74.669 48.8772C75.2872 48.8772 75.7676 49.0808 76.1104 49.488C76.4532 49.8953 76.6246 50.4783 76.6246 51.2371V51.5754H73.4034C73.4151 52.0442 73.5513 52.4236 73.8121 52.7136C74.0757 53.0007 74.4097 53.1443 74.814 53.1443C75.1011 53.1443 75.3443 53.0857 75.5435 52.9685C75.7427 52.8513 75.9171 52.696 76.0665 52.5027L76.563 52.8894C76.1646 53.5017 75.567 53.8079 74.7701 53.8079ZM74.669 49.5452C74.3409 49.5452 74.0655 49.6653 73.8428 49.9055C73.6202 50.1428 73.4825 50.4768 73.4297 50.9075H75.8116V50.8459C75.7881 50.4329 75.6768 50.1135 75.4776 49.8879C75.2784 49.6594 75.0089 49.5452 74.669 49.5452ZM77.3716 51.303C77.3716 50.5735 77.5445 49.9875 77.8902 49.5452C78.2359 49.0999 78.6885 48.8772 79.2481 48.8772C79.8047 48.8772 80.2457 49.0676 80.5709 49.4485V46.97H81.3839V53.72H80.6368L80.5972 53.2102C80.272 53.6086 79.8194 53.8079 79.2393 53.8079C78.6885 53.8079 78.2388 53.5823 77.8902 53.1311C77.5445 52.6799 77.3716 52.0911 77.3716 51.3645V51.303ZM78.1846 51.3953C78.1846 51.9343 78.296 52.3562 78.5186 52.6609C78.7413 52.9656 79.0489 53.1179 79.4415 53.1179C79.9571 53.1179 80.3336 52.8865 80.5709 52.4236V50.2395C80.3277 49.7913 79.9542 49.5671 79.4503 49.5671C79.0518 49.5671 78.7413 49.7209 78.5186 50.0286C78.296 50.3362 78.1846 50.7917 78.1846 51.3953ZM88.5425 52.05H85.8619L85.2598 53.72H84.3897L86.8331 47.3215H87.5714L90.0191 53.72H89.1534L88.5425 52.05ZM86.1168 51.3557H88.2921L87.2022 48.363L86.1168 51.3557ZM92.6602 53.1443C92.9503 53.1443 93.2037 53.0564 93.4205 52.8806C93.6373 52.7048 93.7574 52.4851 93.7808 52.2214H94.5499C94.5352 52.4939 94.4415 52.7532 94.2686 52.9993C94.0958 53.2454 93.8643 53.4417 93.5743 53.5881C93.2872 53.7346 92.9825 53.8079 92.6602 53.8079C92.0128 53.8079 91.4971 53.5925 91.1133 53.1619C90.7325 52.7283 90.5421 52.1365 90.5421 51.3865V51.2502C90.5421 50.7874 90.627 50.3757 90.7969 50.0154C90.9669 49.655 91.21 49.3752 91.5264 49.176C91.8458 48.9768 92.2222 48.8772 92.6558 48.8772C93.189 48.8772 93.6314 49.0369 93.983 49.3562C94.3375 49.6755 94.5264 50.0901 94.5499 50.5999H93.7808C93.7574 50.2922 93.6402 50.0403 93.4293 49.844C93.2213 49.6448 92.9634 49.5452 92.6558 49.5452C92.2427 49.5452 91.9219 49.6946 91.6934 49.9934C91.4678 50.2893 91.355 50.7185 91.355 51.281V51.4348C91.355 51.9827 91.4678 52.4045 91.6934 52.7004C91.919 52.9963 92.2413 53.1443 92.6602 53.1443ZM97.3712 53.1443C97.6612 53.1443 97.9146 53.0564 98.1314 52.8806C98.3482 52.7048 98.4683 52.4851 98.4918 52.2214H99.2608C99.2462 52.4939 99.1524 52.7532 98.9796 52.9993C98.8067 53.2454 98.5753 53.4417 98.2852 53.5881C97.9981 53.7346 97.6934 53.8079 97.3712 53.8079C96.7237 53.8079 96.2081 53.5925 95.8243 53.1619C95.4434 52.7283 95.253 52.1365 95.253 51.3865V51.2502C95.253 50.7874 95.338 50.3757 95.5079 50.0154C95.6778 49.655 95.921 49.3752 96.2374 49.176C96.5567 48.9768 96.9332 48.8772 97.3668 48.8772C97.9 48.8772 98.3423 49.0369 98.6939 49.3562C99.0484 49.6755 99.2374 50.0901 99.2608 50.5999H98.4918C98.4683 50.2922 98.3511 50.0403 98.1402 49.844C97.9322 49.6448 97.6744 49.5452 97.3668 49.5452C96.9537 49.5452 96.6329 49.6946 96.4044 49.9934C96.1788 50.2893 96.066 50.7185 96.066 51.281V51.4348C96.066 51.9827 96.1788 52.4045 96.4044 52.7004C96.6299 52.9963 96.9522 53.1443 97.3712 53.1443ZM99.9595 51.2986C99.9595 50.8328 100.05 50.4138 100.232 50.0417C100.417 49.6697 100.671 49.3826 100.997 49.1804C101.325 48.9783 101.698 48.8772 102.117 48.8772C102.765 48.8772 103.288 49.1013 103.686 49.5496C104.087 49.9978 104.288 50.594 104.288 51.3381V51.3953C104.288 51.8582 104.199 52.2742 104.02 52.6433C103.844 53.0095 103.591 53.2952 103.26 53.5002C102.932 53.7053 102.554 53.8079 102.126 53.8079C101.482 53.8079 100.959 53.5837 100.557 53.1355C100.159 52.6873 99.9595 52.094 99.9595 51.3557V51.2986ZM100.777 51.3953C100.777 51.9226 100.898 52.3459 101.142 52.6653C101.388 52.9846 101.716 53.1443 102.126 53.1443C102.539 53.1443 102.867 52.9832 103.11 52.6609C103.354 52.3357 103.475 51.8816 103.475 51.2986C103.475 50.7771 103.351 50.3552 103.102 50.033C102.856 49.7078 102.527 49.5452 102.117 49.5452C101.716 49.5452 101.392 49.7048 101.146 50.0242C100.9 50.3435 100.777 50.8005 100.777 51.3953ZM108.243 53.2498C107.927 53.6218 107.462 53.8079 106.85 53.8079C106.343 53.8079 105.957 53.6614 105.69 53.3684C105.426 53.0725 105.293 52.636 105.29 52.0588V48.9651H106.103V52.0369C106.103 52.7576 106.396 53.1179 106.982 53.1179C107.603 53.1179 108.016 52.8865 108.221 52.4236V48.9651H109.034V53.72H108.261L108.243 53.2498ZM111.043 48.9651L111.069 49.5627C111.432 49.1057 111.907 48.8772 112.493 48.8772C113.498 48.8772 114.004 49.4441 114.013 50.5779V53.72H113.2V50.5735C113.197 50.2307 113.118 49.9773 112.963 49.8132C112.811 49.6492 112.572 49.5671 112.247 49.5671C111.983 49.5671 111.752 49.6375 111.552 49.7781C111.353 49.9187 111.198 50.1033 111.086 50.3318V53.72H110.273V48.9651H111.043ZM116.342 47.8137V48.9651H117.23V49.5935H116.342V52.5422C116.342 52.7327 116.382 52.8762 116.461 52.9729C116.54 53.0667 116.675 53.1135 116.865 53.1135C116.959 53.1135 117.088 53.0959 117.252 53.0608V53.72C117.038 53.7786 116.83 53.8079 116.628 53.8079C116.265 53.8079 115.991 53.698 115.806 53.4783C115.622 53.2585 115.529 52.9465 115.529 52.5422V49.5935H114.664V48.9651H115.529V47.8137H116.342Z" fill="black" fill-opacity="0.77"/>
<path d="M55.0211 72.6901H52.3404L51.7383 74.36H50.8682L53.3116 67.9615H54.0499L56.4976 74.36H55.6319L55.0211 72.6901ZM52.5953 71.9957H54.7706L53.6807 69.0031L52.5953 71.9957ZM59.1387 73.7843C59.4288 73.7843 59.6822 73.6964 59.899 73.5206C60.1158 73.3448 60.2359 73.1251 60.2593 72.8615H61.0284C61.0137 73.1339 60.92 73.3932 60.7471 73.6393C60.5743 73.8854 60.3428 74.0817 60.0528 74.2281C59.7657 74.3746 59.461 74.4479 59.1387 74.4479C58.4913 74.4479 57.9756 74.2325 57.5919 73.8019C57.211 73.3683 57.0206 72.7765 57.0206 72.0265V71.8903C57.0206 71.4274 57.1055 71.0157 57.2755 70.6554C57.4454 70.295 57.6885 70.0153 58.0049 69.816C58.3243 69.6168 58.7007 69.5172 59.1343 69.5172C59.6675 69.5172 60.1099 69.6769 60.4615 69.9962C60.816 70.3156 61.0049 70.7301 61.0284 71.2399H60.2593C60.2359 70.9323 60.1187 70.6803 59.9078 70.484C59.6998 70.2848 59.442 70.1852 59.1343 70.1852C58.7213 70.1852 58.4005 70.3346 58.1719 70.6334C57.9464 70.9293 57.8336 71.3585 57.8336 71.921V72.0748C57.8336 72.6227 57.9464 73.0446 58.1719 73.3405C58.3975 73.6364 58.7198 73.7843 59.1387 73.7843ZM63.8497 73.7843C64.1397 73.7843 64.3931 73.6964 64.6099 73.5206C64.8267 73.3448 64.9468 73.1251 64.9703 72.8615H65.7393C65.7247 73.1339 65.6309 73.3932 65.4581 73.6393C65.2852 73.8854 65.0538 74.0817 64.7637 74.2281C64.4766 74.3746 64.1719 74.4479 63.8497 74.4479C63.2022 74.4479 62.6866 74.2325 62.3028 73.8019C61.9219 73.3683 61.7315 72.7765 61.7315 72.0265V71.8903C61.7315 71.4274 61.8165 71.0157 61.9864 70.6554C62.1563 70.295 62.3995 70.0153 62.7159 69.816C63.0352 69.6168 63.4117 69.5172 63.8453 69.5172C64.3785 69.5172 64.8209 69.6769 65.1724 69.9962C65.5269 70.3156 65.7159 70.7301 65.7393 71.2399H64.9703C64.9468 70.9323 64.8297 70.6803 64.6187 70.484C64.4107 70.2848 64.1529 70.1852 63.8453 70.1852C63.4322 70.1852 63.1114 70.3346 62.8829 70.6334C62.6573 70.9293 62.5445 71.3585 62.5445 71.921V72.0748C62.5445 72.6227 62.6573 73.0446 62.8829 73.3405C63.1085 73.6364 63.4307 73.7843 63.8497 73.7843ZM68.6265 74.4479C67.982 74.4479 67.4576 74.2369 67.0533 73.8151C66.649 73.3903 66.4468 72.8234 66.4468 72.1144V71.965C66.4468 71.4933 66.5362 71.0729 66.7149 70.7037C66.8965 70.3317 67.1485 70.0416 67.4708 69.8336C67.796 69.6227 68.1475 69.5172 68.5255 69.5172C69.1436 69.5172 69.6241 69.7208 69.9669 70.1281C70.3096 70.5353 70.481 71.1183 70.481 71.8771V72.2155H67.2598C67.2715 72.6842 67.4078 73.0636 67.6685 73.3536C67.9322 73.6407 68.2662 73.7843 68.6705 73.7843C68.9576 73.7843 69.2007 73.7257 69.4 73.6085C69.5992 73.4913 69.7735 73.3361 69.9229 73.1427L70.4195 73.5294C70.0211 74.1417 69.4234 74.4479 68.6265 74.4479ZM68.5255 70.1852C68.1973 70.1852 67.9219 70.3053 67.6993 70.5455C67.4766 70.7828 67.3389 71.1168 67.2862 71.5475H69.668V71.486C69.6446 71.0729 69.5333 70.7535 69.334 70.528C69.1348 70.2994 68.8653 70.1852 68.5255 70.1852ZM75.4424 72.0353C75.4424 72.7589 75.2769 73.3419 74.9459 73.7843C74.6148 74.2267 74.1666 74.4479 73.6011 74.4479C73.024 74.4479 72.5699 74.2648 72.2388 73.8986V76.1881H71.4258V69.6051H72.1685L72.2081 70.1324C72.5391 69.7223 72.9991 69.5172 73.588 69.5172C74.1592 69.5172 74.6104 69.7325 74.9415 70.1632C75.2755 70.5939 75.4424 71.193 75.4424 71.9606V72.0353ZM74.6295 71.943C74.6295 71.4069 74.5152 70.9835 74.2867 70.673C74.0582 70.3624 73.7447 70.2072 73.3463 70.2072C72.8541 70.2072 72.4849 70.4254 72.2388 70.8619V73.1339C72.482 73.5675 72.8541 73.7843 73.355 73.7843C73.7447 73.7843 74.0538 73.6305 74.2823 73.3229C74.5137 73.0123 74.6295 72.5524 74.6295 71.943ZM77.5826 68.4537V69.6051H78.4703V70.2335H77.5826V73.1823C77.5826 73.3727 77.6221 73.5162 77.7012 73.6129C77.7803 73.7067 77.9151 73.7535 78.1055 73.7535C78.1993 73.7535 78.3282 73.736 78.4922 73.7008V74.36C78.2784 74.4186 78.0704 74.4479 77.8682 74.4479C77.5049 74.4479 77.231 74.338 77.0464 74.1183C76.8619 73.8986 76.7696 73.5865 76.7696 73.1823V70.2335H75.9039V69.6051H76.7696V68.4537H77.5826ZM82.8736 67.9615L84.9654 73.1823L87.0572 67.9615H88.1514V74.36H87.3077V71.8683L87.3868 69.1788L85.2862 74.36H84.6402L82.544 69.192L82.6275 71.8683V74.36H81.7838V67.9615H82.8736ZM92.4493 74.36C92.4024 74.2662 92.3643 74.0992 92.335 73.859C91.9571 74.2516 91.5059 74.4479 90.9815 74.4479C90.5128 74.4479 90.1275 74.316 89.8257 74.0524C89.5269 73.7858 89.3775 73.4489 89.3775 73.0416C89.3775 72.5465 89.565 72.1627 89.94 71.8903C90.3179 71.6149 90.8482 71.4772 91.5308 71.4772H92.3218V71.1036C92.3218 70.8195 92.2369 70.5939 92.067 70.4269C91.897 70.257 91.6465 70.172 91.3155 70.172C91.0255 70.172 90.7823 70.2452 90.586 70.3917C90.3897 70.5382 90.2916 70.7155 90.2916 70.9235H89.4742C89.4742 70.6862 89.5577 70.4576 89.7247 70.2379C89.8946 70.0153 90.1231 69.8395 90.4102 69.7106C90.7003 69.5817 91.0181 69.5172 91.3638 69.5172C91.9117 69.5172 92.3409 69.6549 92.6514 69.9303C92.962 70.2028 93.1231 70.5792 93.1348 71.0597V73.2482C93.1348 73.6847 93.1905 74.0319 93.3018 74.2897V74.36H92.4493ZM91.1002 73.7404C91.355 73.7404 91.5967 73.6744 91.8253 73.5426C92.0538 73.4108 92.2193 73.2394 92.3218 73.0284V72.0529H91.6846C90.6885 72.0529 90.1905 72.3444 90.1905 72.9274C90.1905 73.1823 90.2755 73.3815 90.4454 73.525C90.6153 73.6686 90.8336 73.7404 91.1002 73.7404ZM96.7076 70.3346C96.5845 70.3141 96.4512 70.3038 96.3077 70.3038C95.7745 70.3038 95.4127 70.5309 95.2222 70.985V74.36H94.4092V69.6051H95.2003L95.2134 70.1544C95.48 69.7296 95.858 69.5172 96.3472 69.5172C96.5054 69.5172 96.6255 69.5377 96.7076 69.5787V70.3346ZM98.7862 72.1583L98.2764 72.6901V74.36H97.4634V67.61H98.2764V71.6925L98.7115 71.1696L100.192 69.6051H101.181L99.3311 71.5914L101.397 74.36H100.443L98.7862 72.1583ZM103.906 74.4479C103.261 74.4479 102.737 74.2369 102.333 73.8151C101.928 73.3903 101.726 72.8234 101.726 72.1144V71.965C101.726 71.4933 101.815 71.0729 101.994 70.7037C102.176 70.3317 102.428 70.0416 102.75 69.8336C103.075 69.6227 103.427 69.5172 103.805 69.5172C104.423 69.5172 104.903 69.7208 105.246 70.1281C105.589 70.5353 105.76 71.1183 105.76 71.8771V72.2155H102.539C102.551 72.6842 102.687 73.0636 102.948 73.3536C103.211 73.6407 103.545 73.7843 103.95 73.7843C104.237 73.7843 104.48 73.7257 104.679 73.6085C104.878 73.4913 105.053 73.3361 105.202 73.1427L105.699 73.5294C105.3 74.1417 104.703 74.4479 103.906 74.4479ZM103.805 70.1852C103.477 70.1852 103.201 70.3053 102.979 70.5455C102.756 70.7828 102.618 71.1168 102.565 71.5475H104.947V71.486C104.924 71.0729 104.813 70.7535 104.613 70.528C104.414 70.2994 104.145 70.1852 103.805 70.1852ZM107.808 68.4537V69.6051H108.696V70.2335H107.808V73.1823C107.808 73.3727 107.848 73.5162 107.927 73.6129C108.006 73.7067 108.141 73.7535 108.331 73.7535C108.425 73.7535 108.554 73.736 108.718 73.7008V74.36C108.504 74.4186 108.296 74.4479 108.094 74.4479C107.731 74.4479 107.457 74.338 107.272 74.1183C107.087 73.8986 106.995 73.5865 106.995 73.1823V70.2335H106.129V69.6051H106.995V68.4537H107.808ZM110.533 74.36H109.72V69.6051H110.533V74.36ZM109.654 68.3439C109.654 68.212 109.693 68.1007 109.773 68.0099C109.855 67.9191 109.975 67.8737 110.133 67.8737C110.291 67.8737 110.411 67.9191 110.493 68.0099C110.575 68.1007 110.616 68.212 110.616 68.3439C110.616 68.4757 110.575 68.5856 110.493 68.6735C110.411 68.7614 110.291 68.8053 110.133 68.8053C109.975 68.8053 109.855 68.7614 109.773 68.6735C109.693 68.5856 109.654 68.4757 109.654 68.3439ZM112.607 69.6051L112.633 70.2028C112.997 69.7457 113.471 69.5172 114.057 69.5172C115.062 69.5172 115.569 70.0841 115.578 71.2179V74.36H114.765V71.2135C114.762 70.8707 114.683 70.6173 114.527 70.4532C114.375 70.2892 114.136 70.2072 113.811 70.2072C113.547 70.2072 113.316 70.2775 113.117 70.4181C112.918 70.5587 112.762 70.7433 112.651 70.9718V74.36H111.838V69.6051H112.607ZM116.61 71.943C116.61 71.2018 116.782 70.6129 117.125 70.1764C117.467 69.7369 117.921 69.5172 118.487 69.5172C119.067 69.5172 119.52 69.7223 119.845 70.1324L119.884 69.6051H120.627V74.2457C120.627 74.861 120.444 75.3458 120.078 75.7003C119.714 76.0548 119.225 76.2321 118.61 76.2321C118.267 76.2321 117.932 76.1588 117.604 76.0123C117.275 75.8658 117.025 75.6652 116.852 75.4103L117.274 74.9225C117.623 75.3531 118.049 75.5685 118.553 75.5685C118.948 75.5685 119.256 75.4572 119.476 75.2345C119.698 75.0118 119.81 74.6984 119.81 74.2941V73.8854C119.484 74.2604 119.041 74.4479 118.478 74.4479C117.921 74.4479 117.47 74.2238 117.125 73.7755C116.782 73.3273 116.61 72.7164 116.61 71.943ZM117.428 72.0353C117.428 72.5714 117.538 72.9933 117.757 73.3009C117.977 73.6056 118.285 73.7579 118.68 73.7579C119.193 73.7579 119.569 73.525 119.81 73.0592V70.8883C119.561 70.4342 119.187 70.2072 118.689 70.2072C118.294 70.2072 117.984 70.361 117.762 70.6686C117.539 70.9762 117.428 71.4318 117.428 72.0353Z" fill="black" fill-opacity="0.77"/>
<path d="M152.736 154.153H348.675V257.5H152.736V154.153Z" stroke="black" stroke-opacity="0.45"/>
<path d="M326.711 166.342C326.776 166.342 326.84 166.353 326.9 166.376C326.96 166.399 327.014 166.433 327.061 166.476L333.196 172.196C333.29 172.283 333.343 172.401 333.345 172.526C333.346 172.651 333.296 172.771 333.205 172.86L327.218 178.72C327.173 178.764 327.119 178.799 327.06 178.823C327 178.848 326.937 178.861 326.872 178.861C326.807 178.862 326.743 178.851 326.683 178.828C326.623 178.805 326.569 178.771 326.522 178.728C326.476 178.685 326.439 178.633 326.414 178.577C326.388 178.52 326.375 178.459 326.374 178.397C326.373 178.336 326.385 178.275 326.409 178.217C326.433 178.16 326.469 178.108 326.514 178.064L332.157 172.54L326.373 167.148C326.304 167.084 326.256 167 326.236 166.909C326.216 166.819 326.224 166.724 326.26 166.638C326.296 166.551 326.358 166.477 326.439 166.425C326.519 166.372 326.614 166.344 326.711 166.342Z" fill="black" fill-opacity="0.45"/>
<line x1="152.236" y1="182.967" x2="349.175" y2="182.967" stroke="black" stroke-opacity="0.45"/>
<path d="M169.362 172.415C168.639 172.207 168.111 171.952 167.78 171.65C167.452 171.345 167.288 170.97 167.288 170.525C167.288 170.021 167.489 169.605 167.89 169.277C168.294 168.946 168.819 168.78 169.463 168.78C169.903 168.78 170.294 168.865 170.637 169.035C170.982 169.205 171.249 169.439 171.436 169.738C171.627 170.037 171.722 170.364 171.722 170.718H170.874C170.874 170.332 170.751 170.028 170.505 169.809C170.259 169.586 169.911 169.475 169.463 169.475C169.047 169.475 168.722 169.567 168.488 169.751C168.256 169.933 168.141 170.187 168.141 170.512C168.141 170.772 168.25 170.994 168.47 171.175C168.693 171.354 169.069 171.518 169.599 171.667C170.133 171.817 170.549 171.982 170.848 172.164C171.149 172.343 171.372 172.552 171.516 172.792C171.662 173.033 171.735 173.315 171.735 173.641C171.735 174.159 171.533 174.575 171.129 174.889C170.724 175.199 170.184 175.354 169.507 175.354C169.068 175.354 168.658 175.271 168.277 175.104C167.896 174.934 167.601 174.703 167.393 174.41C167.188 174.117 167.086 173.784 167.086 173.412H167.934C167.934 173.799 168.076 174.105 168.36 174.331C168.647 174.553 169.03 174.665 169.507 174.665C169.953 174.665 170.294 174.574 170.531 174.392C170.768 174.21 170.887 173.963 170.887 173.649C170.887 173.336 170.777 173.094 170.557 172.924C170.338 172.751 169.939 172.582 169.362 172.415ZM175.629 174.796C175.312 175.168 174.848 175.354 174.236 175.354C173.729 175.354 173.342 175.208 173.076 174.915C172.812 174.619 172.679 174.183 172.676 173.605V170.512H173.489V173.583C173.489 174.304 173.782 174.665 174.368 174.665C174.989 174.665 175.402 174.433 175.607 173.97V170.512H176.42V175.267H175.646L175.629 174.796ZM181.684 172.942C181.684 173.668 181.517 174.253 181.183 174.695C180.849 175.135 180.401 175.354 179.839 175.354C179.238 175.354 178.774 175.142 178.446 174.717L178.406 175.267H177.659V168.517H178.472V171.035C178.8 170.627 179.253 170.424 179.83 170.424C180.407 170.424 180.86 170.642 181.188 171.079C181.519 171.515 181.684 172.113 181.684 172.872V172.942ZM180.871 172.85C180.871 172.296 180.765 171.868 180.551 171.566C180.337 171.265 180.029 171.114 179.628 171.114C179.092 171.114 178.706 171.363 178.472 171.861V173.917C178.721 174.416 179.109 174.665 179.637 174.665C180.026 174.665 180.329 174.514 180.546 174.212C180.763 173.91 180.871 173.456 180.871 172.85ZM185.481 174.005C185.481 173.786 185.398 173.616 185.231 173.496C185.067 173.373 184.778 173.267 184.365 173.179C183.955 173.091 183.628 172.986 183.385 172.863C183.145 172.74 182.966 172.593 182.849 172.423C182.735 172.253 182.678 172.051 182.678 171.817C182.678 171.427 182.842 171.098 183.17 170.828C183.501 170.559 183.923 170.424 184.435 170.424C184.974 170.424 185.411 170.563 185.745 170.841C186.082 171.12 186.25 171.476 186.25 171.909H185.433C185.433 171.687 185.338 171.495 185.147 171.333C184.96 171.172 184.723 171.092 184.435 171.092C184.14 171.092 183.908 171.156 183.741 171.285C183.574 171.414 183.491 171.583 183.491 171.791C183.491 171.987 183.568 172.135 183.724 172.234C183.879 172.334 184.159 172.429 184.563 172.52C184.97 172.611 185.3 172.719 185.552 172.845C185.804 172.971 185.99 173.124 186.11 173.302C186.233 173.478 186.294 173.693 186.294 173.948C186.294 174.373 186.124 174.714 185.785 174.972C185.445 175.227 185.004 175.354 184.462 175.354C184.081 175.354 183.744 175.287 183.451 175.152C183.158 175.018 182.928 174.83 182.761 174.59C182.597 174.347 182.515 174.084 182.515 173.803H183.328C183.343 174.076 183.451 174.292 183.653 174.454C183.858 174.612 184.128 174.691 184.462 174.691C184.769 174.691 185.016 174.629 185.2 174.506C185.388 174.38 185.481 174.213 185.481 174.005ZM189.261 174.691C189.551 174.691 189.804 174.603 190.021 174.427C190.238 174.251 190.358 174.032 190.381 173.768H191.15C191.136 174.041 191.042 174.3 190.869 174.546C190.696 174.792 190.465 174.988 190.175 175.135C189.888 175.281 189.583 175.354 189.261 175.354C188.613 175.354 188.098 175.139 187.714 174.708C187.333 174.275 187.142 173.683 187.142 172.933V172.797C187.142 172.334 187.227 171.922 187.397 171.562C187.567 171.202 187.81 170.922 188.127 170.723C188.446 170.523 188.823 170.424 189.256 170.424C189.789 170.424 190.232 170.583 190.583 170.903C190.938 171.222 191.127 171.637 191.15 172.146H190.381C190.358 171.839 190.241 171.587 190.03 171.391C189.822 171.191 189.564 171.092 189.256 171.092C188.843 171.092 188.522 171.241 188.294 171.54C188.068 171.836 187.955 172.265 187.955 172.828V172.981C187.955 173.529 188.068 173.951 188.294 174.247C188.519 174.543 188.842 174.691 189.261 174.691ZM194.363 171.241C194.24 171.221 194.106 171.21 193.963 171.21C193.43 171.21 193.068 171.438 192.877 171.892V175.267H192.064V170.512H192.855L192.869 171.061C193.135 170.636 193.513 170.424 194.002 170.424C194.161 170.424 194.281 170.444 194.363 170.485V171.241ZM195.997 175.267H195.184V170.512H195.997V175.267ZM195.119 169.25C195.119 169.119 195.158 169.007 195.237 168.917C195.319 168.826 195.439 168.78 195.598 168.78C195.756 168.78 195.876 168.826 195.958 168.917C196.04 169.007 196.081 169.119 196.081 169.25C196.081 169.382 196.04 169.492 195.958 169.58C195.876 169.668 195.756 169.712 195.598 169.712C195.439 169.712 195.319 169.668 195.237 169.58C195.158 169.492 195.119 169.382 195.119 169.25ZM201.328 172.942C201.328 173.668 201.161 174.253 200.827 174.695C200.493 175.135 200.045 175.354 199.482 175.354C198.882 175.354 198.417 175.142 198.089 174.717L198.05 175.267H197.303V168.517H198.116V171.035C198.444 170.627 198.896 170.424 199.474 170.424C200.051 170.424 200.503 170.642 200.831 171.079C201.162 171.515 201.328 172.113 201.328 172.872V172.942ZM200.515 172.85C200.515 172.296 200.408 171.868 200.194 171.566C199.98 171.265 199.673 171.114 199.271 171.114C198.735 171.114 198.35 171.363 198.116 171.861V173.917C198.365 174.416 198.753 174.665 199.28 174.665C199.67 174.665 199.973 174.514 200.19 174.212C200.407 173.91 200.515 173.456 200.515 172.85ZM204.329 175.354C203.685 175.354 203.161 175.144 202.756 174.722C202.352 174.297 202.15 173.73 202.15 173.021V172.872C202.15 172.4 202.239 171.979 202.418 171.61C202.599 171.238 202.851 170.948 203.174 170.74C203.499 170.529 203.85 170.424 204.228 170.424C204.847 170.424 205.327 170.627 205.67 171.035C206.013 171.442 206.184 172.025 206.184 172.784V173.122H202.963C202.974 173.591 203.111 173.97 203.371 174.26C203.635 174.547 203.969 174.691 204.373 174.691C204.661 174.691 204.904 174.632 205.103 174.515C205.302 174.398 205.476 174.243 205.626 174.049L206.122 174.436C205.724 175.048 205.126 175.354 204.329 175.354ZM204.228 171.092C203.9 171.092 203.625 171.212 203.402 171.452C203.18 171.689 203.042 172.023 202.989 172.454H205.371V172.393C205.348 171.979 205.236 171.66 205.037 171.435C204.838 171.206 204.568 171.092 204.228 171.092ZM209.489 175.267V168.868H211.295C211.851 168.868 212.344 168.991 212.771 169.237C213.199 169.483 213.529 169.833 213.76 170.288C213.995 170.742 214.113 171.263 214.116 171.852V172.261C214.116 172.864 213.999 173.393 213.765 173.847C213.533 174.301 213.201 174.65 212.767 174.893C212.336 175.136 211.834 175.261 211.26 175.267H209.489ZM210.332 169.562V174.577H211.22C211.87 174.577 212.376 174.375 212.736 173.97C213.099 173.566 213.281 172.99 213.281 172.243V171.87C213.281 171.143 213.11 170.579 212.767 170.178C212.427 169.773 211.944 169.568 211.317 169.562H210.332ZM217.241 175.354C216.596 175.354 216.072 175.144 215.667 174.722C215.263 174.297 215.061 173.73 215.061 173.021V172.872C215.061 172.4 215.15 171.979 215.329 171.61C215.511 171.238 215.763 170.948 216.085 170.74C216.41 170.529 216.762 170.424 217.14 170.424C217.758 170.424 218.238 170.627 218.581 171.035C218.924 171.442 219.095 172.025 219.095 172.784V173.122H215.874C215.886 173.591 216.022 173.97 216.283 174.26C216.546 174.547 216.88 174.691 217.285 174.691C217.572 174.691 217.815 174.632 218.014 174.515C218.213 174.398 218.388 174.243 218.537 174.049L219.034 174.436C218.635 175.048 218.037 175.354 217.241 175.354ZM217.14 171.092C216.811 171.092 216.536 171.212 216.313 171.452C216.091 171.689 215.953 172.023 215.9 172.454H218.282V172.393C218.259 171.979 218.147 171.66 217.948 171.435C217.749 171.206 217.479 171.092 217.14 171.092ZM221.143 169.36V170.512H222.031V171.14H221.143V174.089C221.143 174.279 221.182 174.423 221.262 174.52C221.341 174.613 221.475 174.66 221.666 174.66C221.76 174.66 221.889 174.643 222.053 174.607V175.267C221.839 175.325 221.631 175.354 221.429 175.354C221.065 175.354 220.791 175.245 220.607 175.025C220.422 174.805 220.33 174.493 220.33 174.089V171.14H219.464V170.512H220.33V169.36H221.143ZM225.92 175.267C225.873 175.173 225.835 175.006 225.806 174.766C225.428 175.158 224.976 175.354 224.452 175.354C223.983 175.354 223.598 175.223 223.296 174.959C222.997 174.692 222.848 174.355 222.848 173.948C222.848 173.453 223.036 173.069 223.411 172.797C223.788 172.521 224.319 172.384 225.001 172.384H225.792V172.01C225.792 171.726 225.707 171.5 225.537 171.333C225.368 171.164 225.117 171.079 224.786 171.079C224.496 171.079 224.253 171.152 224.057 171.298C223.86 171.445 223.762 171.622 223.762 171.83H222.945C222.945 171.593 223.028 171.364 223.195 171.145C223.365 170.922 223.594 170.746 223.881 170.617C224.171 170.488 224.489 170.424 224.834 170.424C225.382 170.424 225.811 170.562 226.122 170.837C226.432 171.109 226.594 171.486 226.605 171.966V174.155C226.605 174.591 226.661 174.938 226.772 175.196V175.267H225.92ZM224.571 174.647C224.826 174.647 225.067 174.581 225.296 174.449C225.524 174.317 225.69 174.146 225.792 173.935V172.959H225.155C224.159 172.959 223.661 173.251 223.661 173.834C223.661 174.089 223.746 174.288 223.916 174.432C224.086 174.575 224.304 174.647 224.571 174.647ZM228.763 175.267H227.95V170.512H228.763V175.267ZM227.884 169.25C227.884 169.119 227.924 169.007 228.003 168.917C228.085 168.826 228.205 168.78 228.363 168.78C228.521 168.78 228.641 168.826 228.724 168.917C228.806 169.007 228.847 169.119 228.847 169.25C228.847 169.382 228.806 169.492 228.724 169.58C228.641 169.668 228.521 169.712 228.363 169.712C228.205 169.712 228.085 169.668 228.003 169.58C227.924 169.492 227.884 169.382 227.884 169.25ZM230.952 175.267H230.139V168.517H230.952V175.267ZM235.025 174.005C235.025 173.786 234.942 173.616 234.775 173.496C234.611 173.373 234.322 173.267 233.909 173.179C233.499 173.091 233.172 172.986 232.929 172.863C232.689 172.74 232.51 172.593 232.393 172.423C232.279 172.253 232.222 172.051 232.222 171.817C232.222 171.427 232.386 171.098 232.714 170.828C233.045 170.559 233.467 170.424 233.979 170.424C234.518 170.424 234.955 170.563 235.289 170.841C235.626 171.12 235.794 171.476 235.794 171.909H234.977C234.977 171.687 234.882 171.495 234.691 171.333C234.504 171.172 234.266 171.092 233.979 171.092C233.683 171.092 233.452 171.156 233.285 171.285C233.118 171.414 233.035 171.583 233.035 171.791C233.035 171.987 233.112 172.135 233.267 172.234C233.423 172.334 233.703 172.429 234.107 172.52C234.514 172.611 234.844 172.719 235.096 172.845C235.348 172.971 235.534 173.124 235.654 173.302C235.777 173.478 235.838 173.693 235.838 173.948C235.838 174.373 235.668 174.714 235.328 174.972C234.989 175.227 234.548 175.354 234.006 175.354C233.625 175.354 233.288 175.287 232.995 175.152C232.702 175.018 232.472 174.83 232.305 174.59C232.141 174.347 232.059 174.084 232.059 173.803H232.872C232.887 174.076 232.995 174.292 233.197 174.454C233.402 174.612 233.672 174.691 234.006 174.691C234.313 174.691 234.559 174.629 234.744 174.506C234.932 174.38 235.025 174.213 235.025 174.005Z" fill="black"/>
<path d="M169.362 205.668C168.639 205.46 168.111 205.205 167.78 204.903C167.452 204.599 167.288 204.224 167.288 203.778C167.288 203.274 167.489 202.858 167.89 202.53C168.294 202.199 168.819 202.034 169.463 202.034C169.903 202.034 170.294 202.119 170.637 202.289C170.982 202.458 171.249 202.693 171.436 202.992C171.627 203.291 171.722 203.617 171.722 203.972H170.874C170.874 203.585 170.751 203.282 170.505 203.062C170.259 202.839 169.911 202.728 169.463 202.728C169.047 202.728 168.722 202.82 168.488 203.005C168.256 203.187 168.141 203.44 168.141 203.765C168.141 204.026 168.25 204.247 168.47 204.429C168.693 204.607 169.069 204.771 169.599 204.921C170.133 205.07 170.549 205.236 170.848 205.417C171.149 205.596 171.372 205.806 171.516 206.046C171.662 206.286 171.735 206.569 171.735 206.894C171.735 207.413 171.533 207.829 171.129 208.142C170.724 208.453 170.184 208.608 169.507 208.608C169.068 208.608 168.658 208.524 168.277 208.357C167.896 208.188 167.601 207.956 167.393 207.663C167.188 207.37 167.086 207.038 167.086 206.666H167.934C167.934 207.052 168.076 207.358 168.36 207.584C168.647 207.807 169.03 207.918 169.507 207.918C169.953 207.918 170.294 207.827 170.531 207.646C170.768 207.464 170.887 207.216 170.887 206.903C170.887 206.589 170.777 206.348 170.557 206.178C170.338 206.005 169.939 205.835 169.362 205.668ZM175.629 208.05C175.312 208.422 174.848 208.608 174.236 208.608C173.729 208.608 173.342 208.461 173.076 208.168C172.812 207.873 172.679 207.436 172.676 206.859V203.765H173.489V206.837C173.489 207.558 173.782 207.918 174.368 207.918C174.989 207.918 175.402 207.687 175.607 207.224V203.765H176.42V208.52H175.646L175.629 208.05ZM181.684 206.195C181.684 206.922 181.517 207.506 181.183 207.949C180.849 208.388 180.401 208.608 179.839 208.608C179.238 208.608 178.774 208.396 178.446 207.971L178.406 208.52H177.659V201.77H178.472V204.288C178.8 203.881 179.253 203.677 179.83 203.677C180.407 203.677 180.86 203.896 181.188 204.332C181.519 204.769 181.684 205.366 181.684 206.125V206.195ZM180.871 206.103C180.871 205.549 180.765 205.122 180.551 204.82C180.337 204.518 180.029 204.367 179.628 204.367C179.092 204.367 178.706 204.616 178.472 205.114V207.171C178.721 207.669 179.109 207.918 179.637 207.918C180.026 207.918 180.329 207.767 180.546 207.465C180.763 207.164 180.871 206.709 180.871 206.103ZM184.62 207.944C184.91 207.944 185.163 207.856 185.38 207.681C185.597 207.505 185.717 207.285 185.741 207.021H186.51C186.495 207.294 186.401 207.553 186.228 207.799C186.056 208.045 185.824 208.242 185.534 208.388C185.247 208.535 184.942 208.608 184.62 208.608C183.973 208.608 183.457 208.393 183.073 207.962C182.692 207.528 182.502 206.937 182.502 206.187V206.05C182.502 205.587 182.587 205.176 182.757 204.815C182.927 204.455 183.17 204.175 183.486 203.976C183.806 203.777 184.182 203.677 184.616 203.677C185.149 203.677 185.591 203.837 185.943 204.156C186.297 204.476 186.486 204.89 186.51 205.4H185.741C185.717 205.092 185.6 204.84 185.389 204.644C185.181 204.445 184.923 204.345 184.616 204.345C184.203 204.345 183.882 204.495 183.653 204.793C183.428 205.089 183.315 205.519 183.315 206.081V206.235C183.315 206.783 183.428 207.205 183.653 207.5C183.879 207.796 184.201 207.944 184.62 207.944ZM189.722 204.495C189.599 204.474 189.466 204.464 189.322 204.464C188.789 204.464 188.427 204.691 188.237 205.145V208.52H187.424V203.765H188.215L188.228 204.314C188.495 203.89 188.872 203.677 189.362 203.677C189.52 203.677 189.64 203.698 189.722 203.739V204.495ZM191.357 208.52H190.544V203.765H191.357V208.52ZM190.478 202.504C190.478 202.372 190.517 202.261 190.597 202.17C190.679 202.079 190.799 202.034 190.957 202.034C191.115 202.034 191.235 202.079 191.317 202.17C191.399 202.261 191.44 202.372 191.44 202.504C191.44 202.636 191.399 202.746 191.317 202.833C191.235 202.921 191.115 202.965 190.957 202.965C190.799 202.965 190.679 202.921 190.597 202.833C190.517 202.746 190.478 202.636 190.478 202.504ZM196.687 206.195C196.687 206.922 196.52 207.506 196.186 207.949C195.852 208.388 195.404 208.608 194.842 208.608C194.241 208.608 193.777 208.396 193.449 207.971L193.409 208.52H192.662V201.77H193.475V204.288C193.803 203.881 194.256 203.677 194.833 203.677C195.41 203.677 195.863 203.896 196.191 204.332C196.522 204.769 196.687 205.366 196.687 206.125V206.195ZM195.874 206.103C195.874 205.549 195.767 205.122 195.554 204.82C195.34 204.518 195.032 204.367 194.631 204.367C194.095 204.367 193.709 204.616 193.475 205.114V207.171C193.724 207.669 194.112 207.918 194.64 207.918C195.029 207.918 195.332 207.767 195.549 207.465C195.766 207.164 195.874 206.709 195.874 206.103ZM199.689 208.608C199.044 208.608 198.52 208.397 198.116 207.975C197.711 207.55 197.509 206.983 197.509 206.274V206.125C197.509 205.653 197.599 205.233 197.777 204.864C197.959 204.492 198.211 204.202 198.533 203.994C198.858 203.783 199.21 203.677 199.588 203.677C200.206 203.677 200.686 203.881 201.029 204.288C201.372 204.695 201.543 205.278 201.543 206.037V206.375H198.322C198.334 206.844 198.47 207.224 198.731 207.514C198.995 207.801 199.328 207.944 199.733 207.944C200.02 207.944 200.263 207.886 200.462 207.769C200.661 207.651 200.836 207.496 200.985 207.303L201.482 207.689C201.083 208.302 200.486 208.608 199.689 208.608ZM199.588 204.345C199.26 204.345 198.984 204.465 198.762 204.706C198.539 204.943 198.401 205.277 198.349 205.708H200.73V205.646C200.707 205.233 200.596 204.914 200.396 204.688C200.197 204.459 199.928 204.345 199.588 204.345ZM202.29 206.103C202.29 205.374 202.463 204.788 202.809 204.345C203.155 203.9 203.607 203.677 204.167 203.677C204.724 203.677 205.164 203.868 205.49 204.249V201.77H206.303V208.52H205.556L205.516 208.01C205.191 208.409 204.738 208.608 204.158 208.608C203.607 208.608 203.158 208.382 202.809 207.931C202.463 207.48 202.29 206.891 202.29 206.165V206.103ZM203.103 206.195C203.103 206.734 203.215 207.156 203.437 207.461C203.66 207.766 203.968 207.918 204.36 207.918C204.876 207.918 205.252 207.687 205.49 207.224V205.04C205.246 204.591 204.873 204.367 204.369 204.367C203.971 204.367 203.66 204.521 203.437 204.829C203.215 205.136 203.103 205.592 203.103 206.195ZM211.813 205.668C211.09 205.46 210.562 205.205 210.231 204.903C209.903 204.599 209.739 204.224 209.739 203.778C209.739 203.274 209.94 202.858 210.341 202.53C210.745 202.199 211.27 202.034 211.914 202.034C212.354 202.034 212.745 202.119 213.088 202.289C213.433 202.458 213.7 202.693 213.888 202.992C214.078 203.291 214.173 203.617 214.173 203.972H213.325C213.325 203.585 213.202 203.282 212.956 203.062C212.71 202.839 212.363 202.728 211.914 202.728C211.498 202.728 211.173 202.82 210.939 203.005C210.707 203.187 210.592 203.44 210.592 203.765C210.592 204.026 210.702 204.247 210.921 204.429C211.144 204.607 211.52 204.771 212.051 204.921C212.584 205.07 213 205.236 213.299 205.417C213.6 205.596 213.823 205.806 213.967 206.046C214.113 206.286 214.186 206.569 214.186 206.894C214.186 207.413 213.984 207.829 213.58 208.142C213.176 208.453 212.635 208.608 211.958 208.608C211.519 208.608 211.109 208.524 210.728 208.357C210.347 208.188 210.053 207.956 209.845 207.663C209.64 207.37 209.537 207.038 209.537 206.666H210.385C210.385 207.052 210.527 207.358 210.811 207.584C211.099 207.807 211.481 207.918 211.958 207.918C212.404 207.918 212.745 207.827 212.982 207.646C213.22 207.464 213.338 207.216 213.338 206.903C213.338 206.589 213.228 206.348 213.009 206.178C212.789 206.005 212.391 205.835 211.813 205.668ZM216.028 208.52H215.215V203.765H216.028V208.52ZM215.149 202.504C215.149 202.372 215.188 202.261 215.267 202.17C215.349 202.079 215.47 202.034 215.628 202.034C215.786 202.034 215.906 202.079 215.988 202.17C216.07 202.261 216.111 202.372 216.111 202.504C216.111 202.636 216.07 202.746 215.988 202.833C215.906 202.921 215.786 202.965 215.628 202.965C215.47 202.965 215.349 202.921 215.267 202.833C215.188 202.746 215.149 202.636 215.149 202.504ZM218.102 203.765L218.128 204.363C218.492 203.906 218.966 203.677 219.552 203.677C220.557 203.677 221.064 204.244 221.073 205.378V208.52H220.26V205.374C220.257 205.031 220.178 204.777 220.022 204.613C219.87 204.449 219.631 204.367 219.306 204.367C219.042 204.367 218.811 204.438 218.612 204.578C218.412 204.719 218.257 204.903 218.146 205.132V208.52H217.333V203.765H218.102ZM224.206 207.944C224.496 207.944 224.749 207.856 224.966 207.681C225.183 207.505 225.303 207.285 225.327 207.021H226.096C226.081 207.294 225.987 207.553 225.814 207.799C225.641 208.045 225.41 208.242 225.12 208.388C224.833 208.535 224.528 208.608 224.206 208.608C223.558 208.608 223.043 208.393 222.659 207.962C222.278 207.528 222.088 206.937 222.088 206.187V206.05C222.088 205.587 222.173 205.176 222.343 204.815C222.513 204.455 222.756 204.175 223.072 203.976C223.391 203.777 223.768 203.677 224.202 203.677C224.735 203.677 225.177 203.837 225.529 204.156C225.883 204.476 226.072 204.89 226.096 205.4H225.327C225.303 205.092 225.186 204.84 224.975 204.644C224.767 204.445 224.509 204.345 224.202 204.345C223.788 204.345 223.468 204.495 223.239 204.793C223.014 205.089 222.901 205.519 222.901 206.081V206.235C222.901 206.783 223.014 207.205 223.239 207.5C223.465 207.796 223.787 207.944 224.206 207.944ZM228.983 208.608C228.338 208.608 227.814 208.397 227.41 207.975C227.005 207.55 226.803 206.983 226.803 206.274V206.125C226.803 205.653 226.892 205.233 227.071 204.864C227.253 204.492 227.505 204.202 227.827 203.994C228.152 203.783 228.504 203.677 228.882 203.677C229.5 203.677 229.98 203.881 230.323 204.288C230.666 204.695 230.837 205.278 230.837 206.037V206.375H227.616C227.628 206.844 227.764 207.224 228.025 207.514C228.288 207.801 228.622 207.944 229.027 207.944C229.314 207.944 229.557 207.886 229.756 207.769C229.955 207.651 230.13 207.496 230.279 207.303L230.776 207.689C230.377 208.302 229.78 208.608 228.983 208.608ZM228.882 204.345C228.554 204.345 228.278 204.465 228.056 204.706C227.833 204.943 227.695 205.277 227.642 205.708H230.024V205.646C230.001 205.233 229.89 204.914 229.69 204.688C229.491 204.459 229.222 204.345 228.882 204.345Z" fill="black"/>
<path d="M168.567 226.202L170.659 231.422L172.75 226.202H173.845V232.6H173.001V230.108L173.08 227.419L170.979 232.6H170.333L168.237 227.432L168.321 230.108V232.6H167.477V226.202H168.567ZM178.142 232.6C178.096 232.506 178.057 232.339 178.028 232.099C177.65 232.492 177.199 232.688 176.675 232.688C176.206 232.688 175.821 232.556 175.519 232.292C175.22 232.026 175.071 231.689 175.071 231.282C175.071 230.786 175.258 230.403 175.633 230.13C176.011 229.855 176.541 229.717 177.224 229.717H178.015V229.344C178.015 229.059 177.93 228.834 177.76 228.667C177.59 228.497 177.34 228.412 177.009 228.412C176.719 228.412 176.475 228.485 176.279 228.632C176.083 228.778 175.985 228.955 175.985 229.163H175.167C175.167 228.926 175.251 228.698 175.418 228.478C175.588 228.255 175.816 228.079 176.103 227.951C176.393 227.822 176.711 227.757 177.057 227.757C177.605 227.757 178.034 227.895 178.345 228.17C178.655 228.443 178.816 228.819 178.828 229.3V231.488C178.828 231.925 178.884 232.272 178.995 232.53V232.6H178.142ZM176.793 231.98C177.048 231.98 177.29 231.914 177.518 231.783C177.747 231.651 177.912 231.479 178.015 231.268V230.293H177.378C176.382 230.293 175.884 230.584 175.884 231.167C175.884 231.422 175.969 231.621 176.139 231.765C176.308 231.909 176.527 231.98 176.793 231.98ZM180.986 232.6H180.173V227.845H180.986V232.6ZM180.107 226.584C180.107 226.452 180.146 226.341 180.225 226.25C180.307 226.159 180.428 226.114 180.586 226.114C180.744 226.114 180.864 226.159 180.946 226.25C181.028 226.341 181.069 226.452 181.069 226.584C181.069 226.716 181.028 226.826 180.946 226.913C180.864 227.001 180.744 227.045 180.586 227.045C180.428 227.045 180.307 227.001 180.225 226.913C180.146 226.826 180.107 226.716 180.107 226.584ZM183.174 232.6H182.361V225.85H183.174V232.6ZM185.363 232.6H184.55V227.845H185.363V232.6ZM184.484 226.584C184.484 226.452 184.523 226.341 184.602 226.25C184.684 226.159 184.805 226.114 184.963 226.114C185.121 226.114 185.241 226.159 185.323 226.25C185.405 226.341 185.446 226.452 185.446 226.584C185.446 226.716 185.405 226.826 185.323 226.913C185.241 227.001 185.121 227.045 184.963 227.045C184.805 227.045 184.684 227.001 184.602 226.913C184.523 226.826 184.484 226.716 184.484 226.584ZM187.437 227.845L187.463 228.443C187.827 227.986 188.301 227.757 188.887 227.757C189.892 227.757 190.399 228.324 190.408 229.458V232.6H189.595V229.453C189.592 229.111 189.513 228.857 189.357 228.693C189.205 228.529 188.966 228.447 188.641 228.447C188.377 228.447 188.146 228.517 187.947 228.658C187.747 228.799 187.592 228.983 187.481 229.212V232.6H186.668V227.845H187.437ZM191.44 230.183C191.44 229.442 191.612 228.853 191.954 228.416C192.297 227.977 192.751 227.757 193.317 227.757C193.897 227.757 194.349 227.962 194.675 228.372L194.714 227.845H195.457V232.486C195.457 233.101 195.274 233.586 194.908 233.94C194.544 234.295 194.055 234.472 193.44 234.472C193.097 234.472 192.762 234.399 192.433 234.252C192.105 234.106 191.855 233.905 191.682 233.65L192.104 233.162C192.453 233.593 192.879 233.808 193.383 233.808C193.778 233.808 194.086 233.697 194.306 233.474C194.528 233.252 194.64 232.938 194.64 232.534V232.125C194.314 232.5 193.87 232.688 193.308 232.688C192.751 232.688 192.3 232.464 191.954 232.016C191.612 231.567 191.44 230.956 191.44 230.183ZM192.258 230.275C192.258 230.811 192.368 231.233 192.587 231.541C192.807 231.846 193.115 231.998 193.51 231.998C194.023 231.998 194.399 231.765 194.64 231.299V229.128C194.391 228.674 194.017 228.447 193.519 228.447C193.123 228.447 192.814 228.601 192.592 228.909C192.369 229.216 192.258 229.672 192.258 230.275ZM199.895 231.91H202.928V232.6H199.047V226.202H199.895V231.91ZM204.646 232.6H203.833V227.845H204.646V232.6ZM203.767 226.584C203.767 226.452 203.807 226.341 203.886 226.25C203.968 226.159 204.088 226.114 204.246 226.114C204.404 226.114 204.524 226.159 204.606 226.25C204.688 226.341 204.729 226.452 204.729 226.584C204.729 226.716 204.688 226.826 204.606 226.913C204.524 227.001 204.404 227.045 204.246 227.045C204.088 227.045 203.968 227.001 203.886 226.913C203.807 226.826 203.767 226.716 203.767 226.584ZM208.72 231.339C208.72 231.119 208.636 230.949 208.469 230.829C208.305 230.706 208.016 230.6 207.603 230.513C207.193 230.425 206.867 230.319 206.623 230.196C206.383 230.073 206.204 229.927 206.087 229.757C205.973 229.587 205.916 229.385 205.916 229.15C205.916 228.761 206.08 228.431 206.408 228.161C206.739 227.892 207.161 227.757 207.674 227.757C208.213 227.757 208.649 227.896 208.983 228.175C209.32 228.453 209.489 228.809 209.489 229.243H208.671C208.671 229.02 208.576 228.828 208.386 228.667C208.198 228.506 207.961 228.425 207.674 228.425C207.378 228.425 207.146 228.49 206.979 228.619C206.812 228.747 206.729 228.916 206.729 229.124C206.729 229.32 206.807 229.468 206.962 229.568C207.117 229.667 207.397 229.763 207.801 229.853C208.208 229.944 208.538 230.053 208.79 230.179C209.042 230.305 209.228 230.457 209.348 230.636C209.471 230.811 209.533 231.027 209.533 231.282C209.533 231.706 209.363 232.048 209.023 232.306C208.683 232.56 208.242 232.688 207.7 232.688C207.319 232.688 206.982 232.62 206.689 232.486C206.396 232.351 206.166 232.163 205.999 231.923C205.835 231.68 205.753 231.418 205.753 231.137H206.566C206.581 231.409 206.689 231.626 206.891 231.787C207.097 231.945 207.366 232.024 207.7 232.024C208.008 232.024 208.254 231.963 208.438 231.84C208.626 231.714 208.72 231.547 208.72 231.339ZM211.695 226.694V227.845H212.582V228.474H211.695V231.422C211.695 231.613 211.734 231.756 211.813 231.853C211.892 231.947 212.027 231.994 212.218 231.994C212.311 231.994 212.44 231.976 212.604 231.941V232.6C212.391 232.659 212.182 232.688 211.98 232.688C211.617 232.688 211.343 232.578 211.159 232.358C210.974 232.139 210.882 231.827 210.882 231.422V228.474H210.016V227.845H210.882V226.694H211.695ZM216.305 231.339C216.305 231.119 216.221 230.949 216.054 230.829C215.89 230.706 215.601 230.6 215.188 230.513C214.778 230.425 214.452 230.319 214.208 230.196C213.968 230.073 213.789 229.927 213.672 229.757C213.558 229.587 213.501 229.385 213.501 229.15C213.501 228.761 213.665 228.431 213.993 228.161C214.324 227.892 214.746 227.757 215.259 227.757C215.798 227.757 216.234 227.896 216.568 228.175C216.905 228.453 217.074 228.809 217.074 229.243H216.256C216.256 229.02 216.161 228.828 215.971 228.667C215.783 228.506 215.546 228.425 215.259 228.425C214.963 228.425 214.731 228.49 214.564 228.619C214.397 228.747 214.314 228.916 214.314 229.124C214.314 229.32 214.391 229.468 214.547 229.568C214.702 229.667 214.982 229.763 215.386 229.853C215.793 229.944 216.123 230.053 216.375 230.179C216.627 230.305 216.813 230.457 216.933 230.636C217.056 230.811 217.118 231.027 217.118 231.282C217.118 231.706 216.948 232.048 216.608 232.306C216.268 232.56 215.827 232.688 215.285 232.688C214.904 232.688 214.567 232.62 214.274 232.486C213.981 232.351 213.751 232.163 213.584 231.923C213.42 231.68 213.338 231.418 213.338 231.137H214.151C214.166 231.409 214.274 231.626 214.476 231.787C214.682 231.945 214.951 232.024 215.285 232.024C215.593 232.024 215.839 231.963 216.023 231.84C216.211 231.714 216.305 231.547 216.305 231.339Z" fill="black"/>
<path d="M282.162 205.694H279.477V208.52H278.633V202.122H282.597V202.816H279.477V205.004H282.162V205.694ZM285.357 208.608C284.712 208.608 284.188 208.397 283.783 207.975C283.379 207.55 283.177 206.983 283.177 206.274V206.125C283.177 205.653 283.266 205.233 283.445 204.864C283.627 204.492 283.879 204.202 284.201 203.994C284.526 203.783 284.878 203.677 285.256 203.677C285.874 203.677 286.354 203.881 286.697 204.288C287.04 204.695 287.211 205.278 287.211 206.037V206.375H283.99C284.002 206.844 284.138 207.224 284.399 207.514C284.662 207.801 284.996 207.944 285.401 207.944C285.688 207.944 285.931 207.886 286.13 207.769C286.329 207.651 286.504 207.496 286.653 207.303L287.15 207.689C286.751 208.302 286.154 208.608 285.357 208.608ZM285.256 204.345C284.927 204.345 284.652 204.465 284.429 204.706C284.207 204.943 284.069 205.277 284.016 205.708H286.398V205.646C286.375 205.233 286.263 204.914 286.064 204.688C285.865 204.459 285.595 204.345 285.256 204.345ZM287.958 206.103C287.958 205.374 288.131 204.788 288.477 204.345C288.823 203.9 289.275 203.677 289.835 203.677C290.391 203.677 290.832 203.868 291.157 204.249V201.77H291.97V208.52H291.223L291.184 208.01C290.859 208.409 290.406 208.608 289.826 208.608C289.275 208.608 288.825 208.382 288.477 207.931C288.131 207.48 287.958 206.891 287.958 206.165V206.103ZM288.771 206.195C288.771 206.734 288.883 207.156 289.105 207.461C289.328 207.766 289.635 207.918 290.028 207.918C290.544 207.918 290.92 207.687 291.157 207.224V205.04C290.914 204.591 290.541 204.367 290.037 204.367C289.638 204.367 289.328 204.521 289.105 204.829C288.883 205.136 288.771 205.592 288.771 206.195ZM296.567 204.925H297.178C297.562 204.919 297.864 204.818 298.083 204.622C298.303 204.426 298.413 204.161 298.413 203.827C298.413 203.077 298.039 202.702 297.292 202.702C296.941 202.702 296.659 202.803 296.448 203.005C296.24 203.204 296.136 203.469 296.136 203.8H295.323C295.323 203.293 295.508 202.873 295.877 202.539C296.249 202.202 296.721 202.034 297.292 202.034C297.896 202.034 298.369 202.193 298.712 202.513C299.054 202.832 299.226 203.276 299.226 203.844C299.226 204.123 299.135 204.392 298.953 204.653C298.775 204.914 298.53 205.108 298.219 205.237C298.571 205.349 298.842 205.533 299.032 205.791C299.226 206.049 299.323 206.364 299.323 206.736C299.323 207.31 299.135 207.766 298.76 208.103C298.385 208.439 297.897 208.608 297.297 208.608C296.696 208.608 296.207 208.445 295.829 208.12C295.454 207.795 295.266 207.366 295.266 206.833H296.084C296.084 207.169 296.194 207.439 296.413 207.641C296.633 207.843 296.927 207.944 297.297 207.944C297.689 207.944 297.99 207.842 298.198 207.637C298.406 207.432 298.51 207.137 298.51 206.753C298.51 206.381 298.395 206.096 298.167 205.896C297.938 205.697 297.609 205.595 297.178 205.589H296.567V204.925ZM300.496 209.794L300.034 209.478C300.31 209.094 300.453 208.699 300.465 208.292V207.558H301.26V208.195C301.26 208.491 301.187 208.787 301.041 209.083C300.897 209.378 300.716 209.616 300.496 209.794ZM308.63 208.52H304.438V207.936L306.653 205.475C306.981 205.103 307.206 204.801 307.329 204.569C307.455 204.335 307.518 204.093 307.518 203.844C307.518 203.51 307.417 203.236 307.215 203.022C307.013 202.809 306.743 202.702 306.406 202.702C306.002 202.702 305.687 202.817 305.462 203.049C305.239 203.277 305.128 203.597 305.128 204.007H304.315C304.315 203.418 304.504 202.942 304.882 202.579C305.262 202.215 305.771 202.034 306.406 202.034C307.001 202.034 307.471 202.19 307.817 202.504C308.163 202.814 308.336 203.229 308.336 203.748C308.336 204.377 307.934 205.127 307.132 205.998L305.418 207.856H308.63V208.52ZM313.504 205.791C313.504 206.743 313.341 207.451 313.016 207.914C312.691 208.376 312.182 208.608 311.491 208.608C310.808 208.608 310.303 208.382 309.975 207.931C309.647 207.477 309.477 206.8 309.465 205.901V204.815C309.465 203.875 309.628 203.176 309.953 202.719C310.278 202.262 310.788 202.034 311.482 202.034C312.171 202.034 312.677 202.255 313.003 202.697C313.328 203.137 313.495 203.816 313.504 204.736V205.791ZM312.691 204.679C312.691 203.991 312.594 203.49 312.401 203.176C312.207 202.86 311.901 202.702 311.482 202.702C311.066 202.702 310.763 202.858 310.573 203.172C310.382 203.485 310.284 203.967 310.278 204.618V205.918C310.278 206.61 310.378 207.121 310.577 207.452C310.779 207.78 311.084 207.944 311.491 207.944C311.892 207.944 312.19 207.789 312.383 207.479C312.579 207.168 312.682 206.679 312.691 206.011V204.679ZM318.738 208.52H314.545V207.936L316.76 205.475C317.088 205.103 317.314 204.801 317.437 204.569C317.563 204.335 317.626 204.093 317.626 203.844C317.626 203.51 317.525 203.236 317.323 203.022C317.12 202.809 316.851 202.702 316.514 202.702C316.11 202.702 315.795 202.817 315.569 203.049C315.346 203.277 315.235 203.597 315.235 204.007H314.422C314.422 203.418 314.611 202.942 314.989 202.579C315.37 202.215 315.878 202.034 316.514 202.034C317.109 202.034 317.579 202.19 317.925 202.504C318.27 202.814 318.443 203.229 318.443 203.748C318.443 204.377 318.042 205.127 317.239 205.998L315.525 207.856H318.738V208.52ZM322.271 208.52H321.453V203.102L319.814 203.704V202.965L322.143 202.091H322.271V208.52Z" fill="black"/>
<path d="M330.631 232.6H329.814V227.182L328.174 227.784V227.045L330.504 226.171H330.631V232.6Z" fill="black"/>
<rect x="153.444" y="245.387" width="194.523" height="12.6133" fill="white"/>
</svg>
